<svg width="79" height="52" viewBox="0 0 79 52" fill="none" xmlns="http://www.w3.org/2000/svg">
<path d="M65.6545 44.1492H2.2513C2.2513 44.1492 1.61727 28.9529 14.3388 28.3598C15.6963 25.5588 17.2978 22.8828 19.1247 20.3628C20.185 19.1941 21.4847 18.2677 22.9353 17.6465C24.3859 17.0254 25.9533 16.7241 27.5308 16.7631H44.5064L49.9468 28.0325" stroke="#06012F" stroke-width="3" stroke-linecap="round" stroke-linejoin="round"/>
<path d="M14.2568 28.3598H54.8962L58.6186 24.2283L61.5638 30.6709L64.7748 23.7988L68.1291 31.489L71.7083 27.7257" stroke="#06012F" stroke-width="3" stroke-linecap="round" stroke-linejoin="round"/>
<path d="M32.3164 16.7637V28.1558" stroke="#06012F" stroke-width="3" stroke-linecap="round" stroke-linejoin="round"/>
<path d="M19.7186 50.3668C23.1525 50.3668 25.9362 47.5831 25.9362 44.1492C25.9362 40.7154 23.1525 37.9316 19.7186 37.9316C16.2847 37.9316 13.501 40.7154 13.501 44.1492C13.501 47.5831 16.2847 50.3668 19.7186 50.3668Z" fill="#F9FAFC" stroke="#06012F" stroke-width="3" stroke-linecap="round" stroke-linejoin="round"/>
<path d="M51.5633 50.3668C54.9972 50.3668 57.7809 47.5831 57.7809 44.1492C57.7809 40.7154 54.9972 37.9316 51.5633 37.9316C48.1294 37.9316 45.3457 40.7154 45.3457 44.1492C45.3457 47.5831 48.1294 50.3668 51.5633 50.3668Z" fill="#F9FAFC" stroke="#06012F" stroke-width="3" stroke-linecap="round" stroke-linejoin="round"/>
<path d="M63.9616 15.8816L63.3545 2.36719" stroke="#06012F" stroke-width="3" stroke-linecap="round" stroke-linejoin="round"/>
<path d="M57.3696 16.7639L52.4609 7.08984" stroke="#06012F" stroke-width="3" stroke-linecap="round" stroke-linejoin="round"/>
<path d="M70.4966 16.211L76.3691 7.08984" stroke="#06012F" stroke-width="3" stroke-linecap="round" stroke-linejoin="round"/>
</svg>
