<svg width="41" height="50" viewBox="0 0 41 50" fill="none" xmlns="http://www.w3.org/2000/svg">
<path d="M18.8066 38.8145H20.7797C21.6457 38.8121 22.5037 38.9806 23.3044 39.3104C24.1052 39.6402 24.833 40.1247 25.4462 40.7362C26.0594 41.3477 26.5459 42.0742 26.8778 42.8741C27.2098 43.6739 27.3806 44.5314 27.3806 45.3974V47.9266" stroke="#06012F" stroke-width="3" stroke-linecap="round" stroke-linejoin="round"/>
<path d="M6.21484 47.9275L11.2552 24.2324H16.457L20.2956 47.9275H6.21484Z" fill="#F9FAFC" stroke="#06012F" stroke-width="3" stroke-linecap="round" stroke-linejoin="round"/>
<path d="M11.5603 24.2324H29.4975C32.0521 24.2324 34.5022 25.2472 36.3086 27.0537C38.115 28.8601 39.1298 31.3101 39.1298 33.8647V46.9275C39.1298 47.4798 38.6821 47.9275 38.1298 47.9275H2.96387C2.41158 47.9275 1.96387 47.4798 1.96387 46.9275V33.8468C1.96859 31.3014 2.98058 28.8615 4.77873 27.0599C6.57687 25.2584 9.01496 24.2419 11.5603 24.2324Z" stroke="#06012F" stroke-width="3" stroke-linecap="round" stroke-linejoin="round"/>
<path d="M21.4803 25.9724C27.2954 25.9724 32.0095 21.2583 32.0095 15.4432C32.0095 9.62812 27.2954 4.91406 21.4803 4.91406C15.6652 4.91406 10.9512 9.62812 10.9512 15.4432C10.9512 21.2583 15.6652 25.9724 21.4803 25.9724Z" fill="#F9FAFC" stroke="#06012F" stroke-width="3" stroke-linecap="round" stroke-linejoin="round"/>
<path d="M9.24609 14.4922H33.7125" stroke="#06012F" stroke-width="3" stroke-linecap="round" stroke-linejoin="round"/>
<path d="M24.5466 9.07554V4.07107C24.5466 3.59534 24.3577 3.1391 24.0213 2.80271C23.6849 2.46632 23.2286 2.27734 22.7529 2.27734H20.2058C19.7301 2.27734 19.2739 2.46632 18.9375 2.80271C18.6011 3.1391 18.4121 3.59534 18.4121 4.07107V9.07554" fill="white"/>
<path d="M24.5466 9.07555V4.07107C24.5466 3.59534 24.3577 3.1391 24.0213 2.80271C23.6849 2.46632 23.2286 2.27734 22.7529 2.27734H20.2058C19.7301 2.27734 19.2739 2.46632 18.9375 2.80271C18.6011 3.1391 18.4121 3.59534 18.4121 4.07107V9.07555" stroke="#06012F" stroke-width="3" stroke-linecap="round" stroke-linejoin="round"/>
</svg>
