<svg width="47" height="49" viewBox="0 0 47 49" fill="none" xmlns="http://www.w3.org/2000/svg">
<g clip-path="url(#clip0_476_2987)">
<path d="M39.6306 8.71875H6.46271C3.59244 8.71875 1.26562 11.0456 1.26562 13.9158V41.8477C1.26562 44.718 3.59244 47.0448 6.46271 47.0448H39.6306C42.5009 47.0448 44.8277 44.718 44.8277 41.8477V13.9158C44.8277 11.0456 42.5009 8.71875 39.6306 8.71875Z" stroke="#06012F" stroke-width="3" stroke-linecap="round" stroke-linejoin="round"/>
<path d="M12.6924 8.71973V4.82678C12.682 4.40526 12.7558 3.9859 12.9094 3.59321C13.0629 3.20053 13.2932 2.8424 13.5868 2.53975C13.8804 2.2371 14.2314 1.99601 14.6192 1.83056C15.0071 1.66511 15.424 1.57863 15.8456 1.57617H30.2106C31.0487 1.58131 31.8507 1.91785 32.4415 2.5123C33.0323 3.10675 33.3639 3.91082 33.3639 4.74892V8.64187" stroke="#06012F" stroke-width="3" stroke-linecap="round" stroke-linejoin="round"/>
<path d="M23.0474 40.5636C30.0565 40.5636 35.7384 34.8817 35.7384 27.8726C35.7384 20.8636 30.0565 15.1816 23.0474 15.1816C16.0384 15.1816 10.3564 20.8636 10.3564 27.8726C10.3564 34.8817 16.0384 40.5636 23.0474 40.5636Z" fill="#F9FAFC" stroke="#06012F" stroke-width="3" stroke-linecap="round" stroke-linejoin="round"/>
<path d="M21.2367 34.7053C20.9027 34.7003 20.5838 34.5654 20.3477 34.3292C20.1115 34.093 19.9765 33.7741 19.9715 33.4401V30.9486H17.48C17.1445 30.9486 16.8227 30.8153 16.5854 30.5781C16.3481 30.3408 16.2148 30.019 16.2148 29.6834V26.0824C16.2148 25.7469 16.3481 25.4251 16.5854 25.1878C16.8227 24.9505 17.1445 24.8172 17.48 24.8172H19.9715V22.3257C19.9715 21.9902 20.1049 21.6684 20.3421 21.4311C20.5794 21.1938 20.9012 21.0605 21.2367 21.0605H24.8377C25.1733 21.0605 25.4951 21.1938 25.7323 21.4311C25.9696 21.6684 26.1029 21.9902 26.1029 22.3257V24.8172H28.5944C28.9299 24.8172 29.2518 24.9505 29.489 25.1878C29.7263 25.4251 29.8596 25.7469 29.8596 26.0824V29.6834C29.8596 30.019 29.7263 30.3408 29.489 30.5781C29.2518 30.8153 28.9299 30.9486 28.5944 30.9486H26.1029V33.4401C26.0979 33.7741 25.963 34.093 25.7268 34.3292C25.4906 34.5654 25.1717 34.7003 24.8377 34.7053H21.2367Z" fill="#F9FAFC"/>
<path d="M24.8382 22.3253V26.082H28.5949V29.683H24.8382V33.4397H21.2373V29.683H17.4806V26.082H21.2373V22.3253H24.8382ZM24.8382 19.7949H21.2373C20.5662 19.7949 19.9226 20.0615 19.448 20.5361C18.9735 21.0106 18.7069 21.6542 18.7069 22.3253V23.5516H17.4806C16.8095 23.5516 16.1659 23.8182 15.6913 24.2928C15.2168 24.7673 14.9502 25.4109 14.9502 26.082V29.683C14.9502 30.3541 15.2168 30.9977 15.6913 31.4723C16.1659 31.9468 16.8095 32.2134 17.4806 32.2134H18.7069V33.4397C18.7069 34.1108 18.9735 34.7544 19.448 35.229C19.9226 35.7035 20.5662 35.9701 21.2373 35.9701H24.8382C25.5094 35.9701 26.153 35.7035 26.6275 35.229C27.1021 34.7544 27.3687 34.1108 27.3687 33.4397V32.2134H28.5949C29.266 32.2134 29.9097 31.9468 30.3842 31.4723C30.8588 30.9977 31.1254 30.3541 31.1254 29.683V26.082C31.1254 25.4109 30.8588 24.7673 30.3842 24.2928C29.9097 23.8182 29.266 23.5516 28.5949 23.5516H27.3687V22.3253C27.3687 21.6542 27.1021 21.0106 26.6275 20.5361C26.153 20.0615 25.5094 19.7949 24.8382 19.7949Z" fill="#06012F"/>
</g>
<defs>
<clipPath id="clip0_476_2987">
<rect width="46.0925" height="48" fill="white" transform="translate(0.000976562 0.310547)"/>
</clipPath>
</defs>
</svg>
