<svg width="52" height="49" viewBox="0 0 52 49" fill="none" xmlns="http://www.w3.org/2000/svg">
<path d="M29.0968 2.53642C29.3097 2.50899 29.6037 2.6321 29.8105 2.72288C30.0184 2.81409 30.3555 3.05684 30.5605 3.23851C30.8337 3.44006 31.0226 3.70326 31.1977 3.99401C31.3728 4.28475 31.489 4.60716 31.5395 4.9428C31.59 5.27845 31.5739 5.62076 31.4921 5.95018L29.7569 12.7777C29.6629 13.179 29.7164 13.6008 29.9078 13.9659L33.8496 21.5101L36.4713 23.6979L39.0928 25.98C39.0552 25.9129 39.143 26.0383 39.0928 25.98L45.7695 31.9588C46.1124 32.2685 46.3652 32.6651 46.5013 33.1066C46.6374 33.5482 46.6517 34.0183 46.5428 34.4673L44.3361 43.7278C44.1802 44.2723 43.8509 44.751 43.3982 45.0914C42.9454 45.4318 42.394 45.6152 41.8276 45.6138C41.6269 45.6333 41.4248 45.6333 41.2241 45.6138C40.5655 45.4444 39.9994 45.0238 39.6469 44.4422C39.2944 43.8606 39.1835 43.1641 39.338 42.5019L41.0544 35.3537C41.1051 35.1711 41.1016 34.9778 41.0447 34.797C40.9878 34.6163 40.8798 34.4559 40.7337 34.3352L37.8858 31.7891C37.8034 31.7091 37.706 31.6462 37.5992 31.6041C37.4923 31.562 37.3782 31.5415 37.2634 31.5439C37.1311 31.5454 37.0006 31.5747 36.8804 31.6299C36.7601 31.6852 36.6529 31.7651 36.5655 31.8645L30.0021 39.4087C29.7353 39.7076 29.3884 39.9236 29.0025 40.0311C28.6823 40.1497 28.3443 40.2135 28.0029 40.2197C27.6024 40.2179 27.208 40.1209 26.8524 39.9368L16.2151 34.2787C16.0052 34.1697 15.7726 34.1115 15.5361 34.1089C15.3411 34.1077 15.1481 34.1474 14.9695 34.2254C14.7908 34.3033 14.6305 34.4179 14.4988 34.5616L8.29365 41.0307C8.04975 41.2842 7.75666 41.4852 7.43235 41.6214C7.10804 41.7576 6.75933 41.8262 6.4076 41.8229C5.74131 41.8186 5.10126 41.5626 4.61582 41.1062C4.13438 40.619 3.86441 39.9616 3.86441 39.2767C3.86441 38.5918 4.13438 37.9344 4.61582 37.4472L12.9145 28.7903C13.1591 28.5377 13.4523 28.3373 13.7764 28.2011C14.1006 28.065 14.449 27.9959 14.8005 27.9981C15.2157 27.9973 15.6243 28.1011 15.9887 28.2999L17.5707 29.1248C18.0117 29.3548 18.4815 28.8698 18.2376 28.4363L16.1019 24.6409C15.9745 24.4125 15.7885 24.2222 15.5631 24.0896C15.3376 23.957 15.0809 23.8869 14.8194 23.8865H14.7251L6.03036 24.3392H5.89838C5.25054 24.3029 4.64005 24.0242 4.18823 23.5585C3.73641 23.0928 3.47629 22.4742 3.45966 21.8255C3.44303 21.1769 3.67108 20.5457 4.09844 20.0575C4.5258 19.5692 5.12121 19.2597 5.76634 19.1903L16.9883 18.6056H17.1581C17.6081 18.6081 18.0494 18.7299 18.437 18.9585C18.8247 19.1871 19.1448 19.5144 19.3648 19.9069L23.8913 27.9604C23.9745 28.1007 24.0934 28.2165 24.2358 28.296C24.3783 28.3755 24.5392 28.4159 24.7023 28.413C24.8327 28.4167 24.9622 28.3896 25.0801 28.3339C25.1981 28.2782 25.3013 28.1955 25.3813 28.0924L28.6819 24.3203C28.8739 24.1085 28.9952 23.8422 29.029 23.5583C29.0628 23.2744 29.0074 22.987 28.8705 22.736L24.6834 14.7203C24.5263 14.4351 24.427 14.1217 24.3914 13.798C24.3558 13.4743 24.3845 13.1468 24.4759 12.8343L26.6072 4.42247C26.7567 3.87789 27.0817 3.39785 27.5319 3.05684C27.982 2.71582 28.5321 2.53289 29.0968 2.53642ZM28.7324 0.420259C27.6167 0.415649 26.8958 0.448809 26.014 1.1324C25.1322 1.81598 24.5045 2.77499 24.2308 3.85666L22.0996 12.2684C21.79 13.4669 21.9379 14.7377 22.5145 15.8331L26.3809 23.2264L24.8532 25.2445L21.3828 19.1148C20.9533 18.34 20.3249 17.6939 19.5624 17.243C18.7998 16.7921 17.9308 16.5528 17.0449 16.5498H16.7054L5.52115 17.1345C4.86195 17.1692 4.2161 17.3337 3.62059 17.6185C3.02508 17.9033 2.49164 18.3028 2.05082 18.7942C1.60612 19.2816 1.26354 19.8531 1.04327 20.4751C0.823004 21.097 0.729513 21.7567 0.768321 22.4154C0.845109 23.6897 1.40481 24.8869 2.33343 25.7629C3.26205 26.639 4.48971 27.128 5.76634 27.1305H5.99266L11.6508 26.8288C11.4012 27.0094 11.1677 27.2114 10.953 27.4323L2.65437 36.0893C1.96966 36.8018 1.50972 37.7001 1.33187 38.6722C1.15401 39.6442 1.26607 40.6471 1.65413 41.556C2.0422 42.4648 2.6891 43.2394 3.51423 43.7832C4.33935 44.327 5.30623 44.616 6.29444 44.6142C6.97584 44.6152 7.65023 44.4768 8.27621 44.2076C8.90218 43.9384 9.46652 43.5441 9.9345 43.0488L15.5927 37.1266L25.5699 42.351C26.2721 42.7255 27.0562 42.9199 27.852 42.9168C28.4966 42.9249 29.1368 42.8097 29.738 42.5773C30.5284 42.3391 31.2348 41.8812 31.775 41.2571L37.3388 34.8256L38.4139 35.7875L36.9051 42.2189C36.7513 42.8655 36.7271 43.5361 36.8337 44.1921C36.9403 44.8481 37.1757 45.4764 37.5264 46.041C37.8771 46.6056 38.336 47.0951 38.8768 47.4815C39.4175 47.8678 40.0294 48.1433 40.6772 48.292C41.0663 48.3845 41.4654 48.4288 41.8654 48.424C42.9835 48.4296 44.0715 48.0614 44.9565 47.378C45.8415 46.6946 46.4728 45.7351 46.7502 44.6519L48.9757 35.4103C49.1922 34.5268 49.1625 33.6009 48.8898 32.733C48.6172 31.8652 48.112 31.0887 47.4291 30.4877L40.96 24.6787C40.851 24.5434 40.7311 24.4173 40.6017 24.3014L38.9043 22.8303L38.2441 22.2456C38.1579 22.1661 38.063 22.0965 37.9613 22.0382L35.8111 20.1521L32.2465 13.3435L33.9062 6.79891C34.2211 5.51824 34.0249 4.16529 33.3593 3.0268C33.0209 2.45825 32.5734 1.96225 32.0425 1.56735C31.5117 1.17245 31.0958 1.00408 30.3906 0.724946C30.0567 0.592773 29.459 0.420259 28.7324 0.420259Z" fill="#06012F"/>
<path fill-rule="evenodd" clip-rule="evenodd" d="M39.7135 10.0819C40.8057 9.56998 41.9976 9.23037 43.2039 9.23286C43.7358 9.22715 44.2669 9.27773 44.7882 9.38374C46.7716 9.79317 48.5334 10.9217 49.7347 12.5521C50.936 14.1826 51.4918 16.1997 51.2951 18.2153C51.0985 20.2309 50.1633 22.1026 48.6696 23.4701C47.1758 24.8376 45.229 25.6043 43.2039 25.6226C42.6724 25.6192 42.1423 25.5687 41.6197 25.4718C40.2387 25.1898 38.9537 24.5568 37.8885 23.6339C36.8233 22.711 36.0138 21.5292 35.5381 20.2025C35.0624 18.8758 34.9365 17.4489 35.1725 16.0594C35.4085 14.6699 35.9985 13.3646 36.8856 12.2694C37.6555 11.3408 38.6212 10.5938 39.7135 10.0819ZM40.6511 12.0965C41.4493 11.725 42.3203 11.4786 43.2018 11.4804C43.5906 11.4762 43.9787 11.5129 44.3596 11.5899C45.809 11.887 47.0965 12.706 47.9744 13.8893C48.8523 15.0725 49.2584 16.5364 49.1147 17.9993C48.971 19.4621 48.2876 20.8204 47.196 21.8128C46.1044 22.8053 44.6817 23.3617 43.2018 23.375C42.8134 23.3725 42.426 23.3359 42.0441 23.2655C41.035 23.0609 40.0959 22.6015 39.3175 21.9317C38.5391 21.2619 37.9475 20.4043 37.5999 19.4414C37.2522 18.4786 37.1602 17.4431 37.3327 16.4346C37.5052 15.4262 37.9364 14.4789 38.5846 13.6841C39.1473 13.0101 39.8529 12.468 40.6511 12.0965Z" fill="#06012F"/>
<path d="M23.3434 45.3963L16.1387 41.4922" stroke="#06012F" stroke-width="3" stroke-linecap="round" stroke-linejoin="round"/>
<path d="M17.4973 46.6597L11.8203 46.2637" stroke="#06012F" stroke-width="3" stroke-linecap="round" stroke-linejoin="round"/>
<path d="M29.0781 46.6585L33.02 44.4141" stroke="#06012F" stroke-width="3" stroke-linecap="round" stroke-linejoin="round"/>
</svg>
